<svg id="Layer_1" enable-background="new 0 0 512.044 512.044" height="512" viewBox="0 0 512.044 512.044" width="512" xmlns="http://www.w3.org/2000/svg"><g><g><g><path d="m319.594 123.467-8.284-91.117-33.133-8.283h-149.1l-33.133 8.283-8.283 91.117c0 17.128 8.671 32.221 21.856 41.157 1.894 1.283 3.201 3.264 3.533 5.528l7.744 52.715 82.835 16.567 82.832-16.567 7.744-52.715c.333-2.263 1.639-4.244 3.533-5.528 13.185-8.936 21.856-24.03 21.856-41.157z" fill="#b1e4f9"/><path d="m311.31 32.35-23.522-5.88 8.805 96.997c0 17.127-8.671 32.221-21.856 41.157-1.894 1.283-3.201 3.264-3.533 5.528l-8.365 57.44 23.62-4.724 7.744-52.716c.332-2.263 1.639-4.244 3.533-5.528 13.185-8.936 21.856-24.029 21.856-41.157z" fill="#75cef9"/><path d="m286.46 256 79.622 218.297c1.714 4.627-.972 9.716-5.759 10.913-102.881 25.72-210.512 25.72-313.393 0-4.787-1.197-7.472-6.286-5.759-10.913l79.623-218.297 82.835-16.567z" fill="#b1e4f9"/><path d="m366.083 474.297-79.622-218.297-24.83-4.966 81.452 223.263c1.714 4.627-.972 9.716-5.759 10.913-47.693 11.924-96.408 18.309-145.196 19.178 56.455 1.005 113.009-5.381 168.196-19.178 4.786-1.197 7.472-6.286 5.759-10.913z" fill="#75cef9"/><g><path d="m261.61 7.5 15.727 15.727c.548.548.925 1.243 1.085 2.002l7.06 33.411c.566 3.963-1.783 7.764-5.581 9.03l-35.642 11.88c-3.17 1.056-3.848 5.238-1.175 7.243l22.395 16.797c2.8 2.1 3.968 5.725 2.945 9.072-4.223 13.82-19.171 48.585-64.797 60.505-45.626-11.92-60.574-46.686-64.797-60.505-1.023-3.347.145-6.972 2.945-9.072l22.395-16.797c2.673-2.005 1.994-6.186-1.175-7.243l-35.643-11.881c-3.798-1.266-6.147-5.067-5.581-9.03l7.06-33.411c.16-.758.537-1.454 1.085-2.002l15.728-15.726 57.983 11.5z" fill="#eef1f3"/><path d="m285.483 58.64-7.06-33.411c-.16-.758-.537-1.454-1.085-2.001l-15.728-15.728h-9.94l10.812 51.14c.566 3.963-1.783 7.764-5.581 9.03l-35.642 11.88c-3.17 1.056-3.848 5.238-1.175 7.242l22.395 16.797c2.8 2.1 3.967 5.725 2.945 9.072-3.846 12.585-16.596 42.532-53.297 56.787 3.601 1.399 7.423 2.653 11.5 3.718 45.626-11.92 60.574-46.685 64.797-60.505 1.023-3.347-.145-6.972-2.945-9.072l-22.395-16.797c-2.673-2.005-1.994-6.186 1.175-7.242l35.643-11.881c3.798-1.265 6.147-5.066 5.581-9.029z" fill="#cadae6"/><path d="m196.717 95.054-51.073-87.554h115.966l-51.073 87.554c-3.087 5.292-10.733 5.292-13.82 0z" fill="#75cef9"/></g><g><path d="m153.927 222.867h-33.133v33.133h33.133 99.4 33.137v-33.133h-33.137z" fill="#eef1f3"/><g><path d="m213.459 226.099 27.927-13.745c5.504-2.709 11.941 1.297 11.941 7.432v39.296c0 6.158-6.48 10.163-11.988 7.409l-27.708-13.854-19.837.132-27.927 13.745c-5.504 2.709-11.941-1.297-11.941-7.432v-39.296c0-6.158 6.48-10.163 11.988-7.409l27.708 13.854z" fill="#dd646e"/><ellipse cx="203.627" cy="239.433" fill="#db4955" rx="16.567" ry="16.567" transform="matrix(.707 -.707 .707 .707 -109.664 214.115)"/></g><path d="m263.46 222.867h23v33.133h-23z" fill="#cadae6"/></g></g><g><path d="m466.534 299.631-46.858 46.858c-6.47 6.47-16.959 6.47-23.429 0l-64.017-64.017c-3.917-3.917-5.617-9.532-4.53-14.963l7.81-39.048c1.312-6.558 6.438-11.684 12.996-12.996l39.048-7.81c5.432-1.086 11.047.614 14.963 4.531l64.017 64.017c6.469 6.469 6.469 16.958 0 23.428z" fill="#dd646e"/><path d="m466.534 276.202-64.017-64.017c-3.917-3.917-9.532-5.617-14.964-4.531l-10.983 2.197c1.055.659 2.047 1.435 2.946 2.334l64.017 64.017c6.47 6.47 6.47 16.959 0 23.429l-46.857 46.858c-.069.069-.145.126-.214.194 6.484 6.264 16.814 6.207 23.214-.194l46.857-46.858c6.47-6.47 6.47-16.959.001-23.429z" fill="#db4955"/></g></g><g><path d="m471.838 270.898-64.018-64.016c-5.701-5.703-13.827-8.162-21.737-6.583l-39.048 7.81c-2.174.435-4.229 1.167-6.142 2.131l-39.233-39.233c15.324-10.273 25.433-27.747 25.433-47.541 0-.227-.011-.453-.031-.679l-8.283-91.117c-.288-3.177-2.555-5.823-5.649-6.598l-31.119-7.78-15.096-15.093c-1.388-1.389-3.288-2.199-5.305-2.199h-115.967c-2.015 0-3.915.809-5.303 2.196l-15.098 15.098-31.117 7.779c-3.095.774-5.361 3.421-5.649 6.598l-1.649 18.134c-.375 4.125 2.665 7.772 6.79 8.147.23.021.46.031.688.031 3.835 0 7.106-2.927 7.46-6.821l1.167-12.828 16.328-4.082-4.826 22.837c-.034.162-.063.325-.087.489-1.079 7.556 3.393 14.792 10.634 17.207l29.562 9.854-17.27 12.951c-5.299 3.976-7.556 10.913-5.616 17.264 4.534 14.838 19.753 49.842 64.47 63.939v37.776c-.965.317-1.904.691-2.811 1.123l-24.046-12.023c-4.931-2.465-10.67-2.206-15.356.691-3.392 2.096-5.787 5.306-6.856 9.007h-19.785l-5.416-36.852c4.935 1.392 10.131 2.153 15.504 2.153 4.143 0 7.5-3.357 7.5-7.5s-3.357-7.5-7.5-7.5c-23.16 0-42.022-18.755-42.199-41.873l3.876-42.632c.376-4.125-2.664-7.772-6.79-8.147-4.115-.382-7.772 2.665-8.147 6.79l-3.908 42.983c-.021.226-.031.452-.031.679 0 19.794 10.109 37.267 25.432 47.54l7.701 52.405v31.263l-79.157 217.015c-1.557 4.202-1.25 8.885.841 12.848s5.784 6.859 10.132 7.947c13.44 3.359 27.169 6.329 40.804 8.826.457.084.912.124 1.36.124 3.551 0 6.706-2.532 7.368-6.149.746-4.075-1.951-7.982-6.025-8.729-13.323-2.44-26.736-5.342-39.868-8.625-.226-.056-.396-.189-.504-.395-.107-.205-.122-.419-.028-.672l5.627-15.426c49.074 11.547 99.427 17.337 149.783 17.337s100.708-5.79 149.783-17.337l5.639 15.46c.08.219.066.434-.042.639-.108.206-.278.339-.503.395-78.957 19.739-159.885 24.211-240.531 13.296-4.106-.549-7.883 2.321-8.439 6.427-.556 4.104 2.322 7.883 6.427 8.438 29.321 3.969 58.664 5.949 87.954 5.949 53.165-.001 106.123-6.532 158.229-19.558 4.347-1.087 8.038-3.983 10.129-7.945 2.092-3.963 2.398-8.646.855-12.813l-79.165-217.044v-31.291l4.978-33.887 31.345 31.344c-.964 1.912-1.697 3.967-2.131 6.141l-7.81 39.047c-1.582 7.909.878 16.035 6.581 21.739l64.017 64.017c4.546 4.545 10.59 7.049 17.019 7.049s12.473-2.504 17.018-7.049l46.858-46.857c4.545-4.546 7.049-10.59 7.049-17.018-.001-6.431-2.505-12.475-7.05-17.021zm-159.745-147.105c-.177 23.119-19.039 41.874-42.199 41.874-4.143 0-7.5 3.357-7.5 7.5s3.357 7.5 7.5 7.5c5.373 0 10.569-.761 15.503-2.153l-5.414 36.852h-19.785c-1.065-3.684-3.445-6.884-6.812-8.98-4.661-2.901-10.385-3.184-15.311-.762l-24.335 11.977c-.845-.393-1.717-.738-2.612-1.032v-37.776c44.714-14.096 59.935-49.102 64.471-63.941 1.94-6.35-.318-13.287-5.618-17.264l-17.268-12.95 29.564-9.854c7.239-2.415 11.711-9.65 10.633-17.205-.023-.164-.053-.328-.087-.491l-4.826-22.837 16.328 4.082zm-86.872 126.252c1.581-3.203 2.473-6.805 2.473-10.612 0-3.856-.917-7.5-2.536-10.734l19.538-9.617c.107-.052.391-.192.761.037.369.23.369.546.369.665v39.296c0 .119 0 .438-.371.667-.373.23-.654.088-.762.034zm-30.661-10.611c0-5 4.067-9.067 9.066-9.067 5 0 9.067 4.067 9.067 9.067 0 4.999-4.067 9.066-9.067 9.066-4.998 0-9.066-4.067-9.066-9.066zm68.627-219.751 8.113 8.113 6.767 32.021c-.002.332-.215.631-.536.738l-35.641 11.88c-4.122 1.373-7.115 4.89-7.811 9.179-.697 4.288 1.029 8.572 4.506 11.18l22.395 16.795c.268.201.376.548.273.882-3.667 12.001-15.654 39.638-50.125 52.464v-54.005zm-2.36 210.683h18.137v18.134h-18.137zm-12.274-215.366-44.926 77.016-44.926-77.016zm-102.55 95.472c-.102-.336.005-.683.271-.883l22.396-16.796c3.477-2.607 5.203-6.892 4.506-11.18-.696-4.288-3.689-7.805-7.809-9.178l-35.642-11.88c-.323-.108-.535-.407-.537-.737l6.767-32.023 8.112-8.112 52.06 89.245v54.005c-34.472-12.825-46.458-40.461-50.124-52.461zm15.425 109.313c0-.119 0-.437.371-.666.369-.229.655-.088.763-.034l19.472 9.736c-1.581 3.204-2.473 6.805-2.473 10.613 0 3.855.916 7.499 2.535 10.733l-19.54 9.618c-.105.054-.389.193-.759-.037-.369-.23-.369-.547-.369-.666zm-33.134 10.581h18.134v18.134h-18.134zm-69.275 216.888 67.023-183.754h21.016c1.065 3.685 3.445 6.885 6.814 8.981 2.559 1.593 5.438 2.397 8.33 2.396.546 0 1.092-.036 1.636-.094l-8.988 46.046c-.793 4.065 1.859 8.004 5.925 8.798.485.095.968.14 1.444.14 3.516 0 6.654-2.484 7.354-6.065l10.938-56.036 13.006-6.401c3.076 1.431 6.501 2.235 10.111 2.235 3.688 0 7.184-.836 10.312-2.325l12.787 6.394 10.957 56.135c.699 3.581 3.837 6.065 7.354 6.065.476 0 .96-.045 1.444-.14 4.066-.794 6.718-4.732 5.925-8.798l-8.988-46.046c.545.057 1.09.095 1.636.095 2.874 0 5.737-.795 8.288-2.371 3.392-2.096 5.787-5.307 6.856-9.008h21.015l67.023 183.754c-94.797 22.02-194.422 22.02-289.218-.001zm402.211-152.927-46.857 46.858c-1.712 1.713-3.989 2.656-6.411 2.656s-4.699-.943-6.411-2.656l-64.017-64.017c-2.149-2.148-3.076-5.21-2.479-8.19l7.227-36.135 13.519 13.519c1.465 1.464 3.384 2.196 5.304 2.196 1.919 0 3.839-.732 5.304-2.196 2.929-2.93 2.929-7.678 0-10.607l-13.519-13.519 36.135-7.227c.595-.119 1.192-.177 1.785-.177 2.38 0 4.685.937 6.403 2.657l64.017 64.017c1.713 1.712 2.656 3.989 2.656 6.411.001 2.421-.943 4.698-2.656 6.41z"/><path d="m378.122 270.898c-2.93-2.928-7.678-2.928-10.607 0-2.929 2.93-2.929 7.678 0 10.607l2.929 2.929c1.465 1.464 3.385 2.196 5.304 2.196s3.839-.732 5.304-2.196c2.929-2.93 2.929-7.678 0-10.608z"/><path d="m433.765 279.685c-2.93-2.928-7.678-2.928-10.607 0-2.929 2.93-2.929 7.678 0 10.607l2.929 2.929c1.465 1.464 3.385 2.196 5.304 2.196s3.839-.732 5.304-2.196c2.929-2.93 2.929-7.678 0-10.607z"/><path d="m403.601 251.303c-.813-4.061-4.765-6.688-8.825-5.884-4.061.813-6.696 4.764-5.884 8.825l11.715 58.572c.713 3.565 3.845 6.03 7.347 6.03.487 0 .982-.048 1.479-.147 4.061-.813 6.696-4.764 5.884-8.825z"/></g></g></svg>